<?xml version="1.0" encoding="UTF-8"?>
<svg xmlns="http://www.w3.org/2000/svg" xmlns:xlink="http://www.w3.org/1999/xlink" width="20pt" height="20pt" viewBox="0 0 20 20" version="1.1">
<g id="surface1">
<path style=" stroke:none;fill-rule:evenodd;fill:rgb(0%,0%,0%);fill-opacity:1;" d="M 16.847656 18 L 3.152344 18 C 2.542969 18 2.078125 17.460938 2.164062 16.859375 L 3.304688 8.859375 C 3.375 8.367188 3.796875 8 4.296875 8 L 5 8 L 5 10 C 5 10.550781 5.449219 11 6 11 C 6.550781 11 7 10.550781 7 10 L 7 8 L 13 8 L 13 10 C 13 10.550781 13.449219 11 14 11 C 14.550781 11 15 10.550781 15 10 L 15 8 L 15.703125 8 C 16.203125 8 16.625 8.367188 16.695312 8.859375 L 17.835938 16.859375 C 17.921875 17.460938 17.457031 18 16.847656 18 Z M 7 5 C 7 3.347656 8.34375 2 10 2 C 11.65625 2 13 3 13 5 L 13 6 L 7 6 Z M 19.980469 17.71875 L 18.550781 7.71875 C 18.410156 6.730469 17.566406 6 16.570312 6 L 15 6 L 15 5 C 15 2 12.757812 0 10 0 C 7.242188 0 5 2.242188 5 5 L 5 6 L 3.734375 6 C 2.738281 6 1.589844 6.730469 1.449219 7.71875 L 0.0195312 17.71875 C -0.152344 18.921875 0.785156 20 2 20 L 18 20 C 19.214844 20 20.152344 18.921875 19.980469 17.71875 Z M 19.980469 17.71875 "/>
</g>
</svg>
