<?xml version="1.0" encoding="UTF-8"?>
<svg xmlns="http://www.w3.org/2000/svg" xmlns:xlink="http://www.w3.org/1999/xlink" width="20pt" height="20pt" viewBox="0 0 20 20" version="1.1">
<g id="surface1">
<path style=" stroke:none;fill-rule:nonzero;fill:rgb(0%,0%,0%);fill-opacity:1;" d="M 8 14.992188 C 9.707031 14.992188 11.253906 14.386719 12.464844 13.363281 L 17.890625 18.789062 C 18.015625 18.914062 18.171875 18.976562 18.339844 18.976562 C 18.511719 18.976562 18.667969 18.914062 18.789062 18.789062 C 19.039062 18.542969 19.039062 18.140625 18.789062 17.890625 L 13.363281 12.464844 C 14.371094 11.253906 14.992188 9.691406 14.992188 8 C 14.992188 4.140625 11.859375 1.007812 8 1.007812 C 4.15625 1.007812 1.007812 4.15625 1.007812 8 C 1.007812 11.859375 4.15625 14.992188 8 14.992188 Z M 8 2.277344 C 11.164062 2.277344 13.722656 4.851562 13.722656 8 C 13.722656 11.164062 11.164062 13.722656 8 13.722656 C 4.835938 13.722656 2.277344 11.148438 2.277344 8 C 2.277344 4.851562 4.851562 2.277344 8 2.277344 Z M 8 2.277344 "/>
</g>
</svg>
